<svg xmlns="http://www.w3.org/2000/svg" width="56" height="56" fill="none"><circle cx="28" cy="28" r="28" fill="url(#a)"/><path fill="#fff" fill-rule="evenodd" d="M35 22h-2c0-2.76-2.24-5-5-5s-5 2.24-5 5h-2c-1.1 0-1.99.9-1.99 2L19 36c0 1.1.9 2 2 2h14c1.1 0 2-.9 2-2V24c0-1.1-.9-2-2-2Zm-7-3c1.66 0 3 1.34 3 3h-6c0-1.66 1.34-3 3-3Zm0 10c-2.76 0-5-2.24-5-5h2c0 1.66 1.34 3 3 3s3-1.34 3-3h2c0 2.76-2.24 5-5 5Z" clip-rule="evenodd"/><mask id="b" width="18" height="21" x="19" y="17" maskUnits="userSpaceOnUse" style="mask-type:luminance"><path fill="#fff" fill-rule="evenodd" d="M35 22h-2c0-2.76-2.24-5-5-5s-5 2.24-5 5h-2c-1.1 0-1.99.9-1.99 2L19 36c0 1.1.9 2 2 2h14c1.1 0 2-.9 2-2V24c0-1.1-.9-2-2-2Zm-7-3c1.66 0 3 1.34 3 3h-6c0-1.66 1.34-3 3-3Zm0 10c-2.76 0-5-2.24-5-5h2c0 1.66 1.34 3 3 3s3-1.34 3-3h2c0 2.76-2.24 5-5 5Z" clip-rule="evenodd"/></mask><defs><linearGradient id="a" x1="0" x2="0" y1="0" y2="56" gradientUnits="userSpaceOnUse"><stop stop-color="#FF6F48"/><stop offset="1" stop-color="#F02AA6"/></linearGradient></defs></svg>