<svg xmlns="http://www.w3.org/2000/svg" width="56" height="56" fill="none"><circle cx="28" cy="28" r="28" fill="url(#a)"/><path fill="#fff" fill-rule="evenodd" d="M35 19H21c-1.1 0-2 .9-2 2v14c0 1.1.9 2 2 2h14c1.1 0 2-.9 2-2V21c0-1.1-.9-2-2-2Zm0 16-7-8v8h-7l7-8v-6h7v14Z" clip-rule="evenodd"/><mask id="b" width="18" height="18" x="19" y="19" maskUnits="userSpaceOnUse" style="mask-type:luminance"><path fill="#fff" fill-rule="evenodd" d="M35 19H21c-1.1 0-2 .9-2 2v14c0 1.1.9 2 2 2h14c1.1 0 2-.9 2-2V21c0-1.1-.9-2-2-2Zm0 16-7-8v8h-7l7-8v-6h7v14Z" clip-rule="evenodd"/></mask><defs><linearGradient id="a" x1="0" x2="0" y1="0" y2="56" gradientUnits="userSpaceOnUse"><stop stop-color="#FF6F48"/><stop offset="1" stop-color="#F02AA6"/></linearGradient></defs></svg>