<svg xmlns="http://www.w3.org/2000/svg" width="56" height="56" fill="none"><circle cx="28" cy="28" r="28" fill="url(#a)"/><path fill="#fff" fill-rule="evenodd" d="m25 18-1.83 2H20c-1.1 0-2 .9-2 2v12c0 1.1.9 2 2 2h16c1.1 0 2-.9 2-2V22c0-1.1-.9-2-2-2h-3.17L31 18h-6Zm6.2 10a3.2 3.2 0 1 1-6.4 0 3.2 3.2 0 0 1 6.4 0ZM23 28c0 2.76 2.24 5 5 5s5-2.24 5-5-2.24-5-5-5-5 2.24-5 5Z" clip-rule="evenodd"/><mask id="b" width="20" height="18" x="18" y="18" maskUnits="userSpaceOnUse" style="mask-type:luminance"><path fill="#fff" fill-rule="evenodd" d="m25 18-1.83 2H20c-1.1 0-2 .9-2 2v12c0 1.1.9 2 2 2h16c1.1 0 2-.9 2-2V22c0-1.1-.9-2-2-2h-3.17L31 18h-6Zm6.2 10a3.2 3.2 0 1 1-6.4 0 3.2 3.2 0 0 1 6.4 0ZM23 28c0 2.76 2.24 5 5 5s5-2.24 5-5-2.24-5-5-5-5 2.24-5 5Z" clip-rule="evenodd"/></mask><defs><linearGradient id="a" x1="0" x2="0" y1="0" y2="56" gradientUnits="userSpaceOnUse"><stop stop-color="#FF6F48"/><stop offset="1" stop-color="#F02AA6"/></linearGradient></defs></svg>